<svg width="500" height="500" viewBox="0 0 500 500" fill="none" xmlns="http://www.w3.org/2000/svg">
<path d="M77.24 311.52V138.307H111.88V207.347L155.48 138.307H195.947L139.733 223.827L200.8 311.52H157.907L111.88 243.68V311.52H77.24Z" fill="white"/>
<path d="M187.907 155.813C187.907 152.28 189.227 149.36 191.893 147.066C194.56 144.773 197.653 143.626 201.2 143.626C204.96 143.626 208.147 144.773 210.747 147.066C213.347 149.36 214.653 152.28 214.653 155.813C214.653 159.266 213.347 162.16 210.747 164.506C208.147 166.853 204.96 168.026 201.2 168.026C197.653 167.92 194.56 166.706 191.893 164.426C189.227 162.133 187.907 159.266 187.907 155.813ZM228.413 155.813C228.413 152.28 229.733 149.36 232.387 147.066C235.053 144.773 238.16 143.626 241.707 143.626C245.467 143.626 248.613 144.773 251.16 147.066C253.707 149.36 254.987 152.28 254.987 155.813C254.987 159.266 253.707 162.133 251.16 164.426C248.613 166.706 245.467 167.92 241.707 168.026C238.16 168.026 235.053 166.853 232.387 164.506C229.733 162.16 228.413 159.266 228.413 155.813ZM220.453 290.773C210.853 290.773 202.427 289.16 195.173 285.946C187.947 282.706 181.92 278.36 177.12 272.88C172.32 267.413 168.72 261.24 166.32 254.36C163.933 247.48 162.747 240.4 162.747 233.146C162.747 225.906 163.933 218.84 166.32 211.96C168.72 205.093 172.32 198.92 177.12 193.44C181.92 187.973 187.947 183.613 195.173 180.373C202.427 177.146 210.853 175.52 220.453 175.52C230.04 175.52 238.44 177.146 245.68 180.373C252.933 183.613 258.947 187.973 263.747 193.44C268.547 198.92 272.147 205.093 274.533 211.96C276.933 218.84 278.133 225.906 278.133 233.146C278.133 240.4 276.933 247.48 274.533 254.36C272.147 261.24 268.547 267.413 263.747 272.88C258.947 278.36 252.933 282.706 245.68 285.946C238.44 289.16 230.04 290.773 220.453 290.773ZM220.453 267.626C226.8 267.626 232.267 266.373 236.84 263.88C241.44 261.373 245.093 258.08 247.8 253.96C250.507 249.84 252.333 245.333 253.267 240.426C254.2 235.52 254.2 230.626 253.267 225.733C252.333 220.826 250.507 216.333 247.8 212.213C245.093 208.093 241.44 204.773 236.84 202.28C232.267 199.773 226.8 198.52 220.453 198.52C214.08 198.52 208.613 199.773 204.013 202.28C199.427 204.773 195.787 208.093 193.08 212.213C190.373 216.333 188.533 220.826 187.6 225.733C186.667 230.626 186.667 235.52 187.6 240.426C188.533 245.333 190.373 249.84 193.08 253.96C195.787 258.08 199.427 261.373 204.013 263.88C208.613 266.373 214.08 267.626 220.453 267.626Z" fill="white"/>
<path d="M320.667 313.493L248.973 136.68H288.933L311.96 194.32L324.533 230.174L336.893 195.533L360.16 136.68H400.12L328.413 313.493H320.667Z" fill="white"/>
<path d="M291.427 314.187L363.547 136.64H367.133L439.253 314.187H400.68L393.733 295.72H336.947L330.24 314.187H291.427ZM349.4 263.627H381.027L365.467 219.053L349.4 263.627Z" fill="white"/>
<path d="M76.9067 139.187H110.84V312.56H76.9067V139.187Z" fill="white"/>
</svg>
